# xmcd
#
# Track frame offsets:
#	150
#	12385
#	24373
#	34527
#	44389
#	57214
#	69366
#	80795
#	91484
#	103072
#
# Disc length: 1542 seconds
#
# Revision: 1
# Processed by: cddbd v1.5.1PL0 Copyright (c) Steve Scherf et al.
# Submitted via: audiograbber 1.83.01
#
DISCID=7906040a
DTITLE=Dolly Parton - The Bargain Store
DYEAR=1900
DGENRE=
TTITLE0=The Bargain Store
TTITLE1=Kentucky Gambler
TTITLE2=When I'm Gone
TTITLE3=The Only Hand You'll Need To Hold
TTITLE4=On My Mind Again
TTITLE5=I Want To Be What You Need
TTITLE6=Love To Remember
TTITLE7=You'll Always Be Special To Me
TTITLE8=He Would Know
TTITLE9=I'll Never Forget
EXTD=
EXTT0=
EXTT1=
EXTT2=
EXTT3=
EXTT4=
EXTT5=
EXTT6=
EXTT7=
EXTT8=
EXTT9=
PLAYORDER=
